<?xml version="1.0" ?><svg id="Layer_1" style="enable-background:new 0 0 64 64;" version="1.1" viewBox="0 0 64 64" xml:space="preserve" xmlns="http://www.w3.org/2000/svg" xmlns:xlink="http://www.w3.org/1999/xlink"><g><path d="M56.16319,12.51128l-8.56006-10.88c-0.22021-0.28003-0.6001-0.37-0.91992-0.22003   c-4.26025,2.04004-8.9502,1.67999-14.34009-1.08002c-0.21021-0.10999-0.46997-0.10999-0.67993,0   c-5.40015,2.75-10.1001,3.11005-14.39014,1.08002c-0.31006-0.14996-0.68994-0.06-0.90991,0.22003l-8.53003,10.88   c-0.13013,0.15997-0.18018,0.37-0.1499,0.57996c0.03979,0.20001,0.1499,0.39001,0.32983,0.5   c3.82007,2.54999,3.38013,8.52002,2.90991,14.84003c-0.60986,8.20996-1.29004,17.48999,7.47021,21.27997v5.45001h-2.36011   c-0.34985,0-0.65015,0.22998-0.72998,0.56l-1.77002,7.10004c-0.12848,0.47058,0.25684,0.92999,0.72998,0.92999h35.47998   c0.47579,0,0.83974-0.4476,0.72998-0.92999l-1.78003-7.10004c-0.07983-0.33002-0.37988-0.56-0.71997-0.56h-2.35986v-5.45001   c8.69995-3.75995,8.03003-13.01996,7.43994-21.21997c-0.46997-6.34003-0.90015-12.33002,2.93994-14.90002   c0.17017-0.10999,0.29004-0.29999,0.32007-0.5C56.35313,12.88127,56.29307,12.67125,56.16319,12.51128z M40.56358,60.20311h-17.125   c-0.41406,0-0.75-0.33594-0.75-0.75s0.33594-0.75,0.75-0.75h17.125c0.41406,0,0.75,0.33594,0.75,0.75   S40.97764,60.20311,40.56358,60.20311z M44.11314,55.16124H19.89317v-4.87c4.43436,1.47887,9.44872,1.89059,11.66992,3.47003   c0.26443,0.19244,0.6625,0.17281,0.87012,0c1.48339-1.04807,4.32757-1.62307,6.22998-2.04004   c2.21804-0.50825,3.43936-0.76082,5.44995-1.42999V55.16124z M51.55308,28.60124   c0.59985,8.21002,1.21997,16.70001-6.96997,19.91998c-2,0.79004-4.16016,1.27002-6.25,1.73004   c-2.41992,0.53998-4.72998,1.04999-6.33008,2.01001c-2.94719-1.76825-8.07479-1.97554-12.58984-3.74005   c-8.24023-3.25-7.61011-11.75995-7-19.97998c0.47998-6.42999,0.92993-12.51001-2.92017-15.71002l7.69018-9.81995   c4.48975,1.91998,9.33984,1.53998,14.81982-1.17004c5.45996,2.72003,10.31006,3.10004,14.78003,1.17004l7.72998,9.81995   C50.63291,16.04124,51.08311,22.15123,51.55308,28.60124z"/><path d="M42.95689,22.47325c-1.66943-0.70581-3.40015-0.6322-5.17212,0.2229c-0.31006-0.26599-0.6228-0.52637-0.94629-0.76111   c-0.32227-0.28302-0.66333-0.54382-1.00269-0.80615c1.40796-0.83392,2.75513-1.32703,3.95581-1.38318   C40.97446,20.50041,42.03916,21.41924,42.95689,22.47325z M34.08018,17.62767c1.26807,0.18286,2.48779,0.51526,3.62891,1.00433   c-1.03027,0.33301-2.10571,0.86292-3.19604,1.55408c-0.55347-0.3645-1.11377-0.70221-1.68188-1.00562   C33.452,18.65916,33.85459,18.14409,34.08018,17.62767z M32.4332,17.48332c-0.21924,0.26691-0.56445,0.59009-1.10889,0.97089   c-0.68677-0.29541-1.36499-0.54462-2.02515-0.7312c0.87671-0.16565,1.77783-0.2616,2.7019-0.2616   C32.14707,17.46141,32.28843,17.47905,32.4332,17.48332z M25.88511,18.82878c0.95679-0.12616,2.29565,0.07574,3.80542,0.59875   c-0.50171,0.26361-1.07422,0.54279-1.74902,0.84149c-3.45386,1.216-6.20483,2.6015-8.34253,4.18414   C21.09043,22.0114,23.27525,20.04588,25.88511,18.82878z M18.07261,27.85747c2.11719-2.43988,5.50708-4.46216,10.42114-6.19489   c1.17529-0.51953,2.14136-1.02179,2.95044-1.51563c0.57397,0.27643,1.15649,0.59351,1.74414,0.95673   c-5.89868,4.37683-11.83203,12.90851-12.85034,19.53668c-1.79712-2.41907-2.87451-5.40314-2.87451-8.64136   C17.46348,30.55962,17.68125,29.17137,18.07261,27.85747z M21.69492,42.23906c0.2041-6.3075,6.77148-15.90814,12.82422-20.24274   c0.46606,0.34216,0.9292,0.71045,1.38379,1.10913c0.19067,0.13855,0.37012,0.29742,0.55518,0.44653   c-2.26929,2.11481-2.59399,6.7207-2.57568,11.03442c-0.62305,6.49518-1.10132,9.73517-2.30151,11.92841   C27.72422,46.40373,24.23692,44.79723,21.69492,42.23906z M33.2711,46.47179c1.05396-2.37549,1.52637-5.72394,2.10791-11.81604   c-0.01367-3.88574,0.24634-8.40369,2.21924-10.08954c4.83887,4.74493,7.3125,12.85498,6.09277,16.03821   C41.27818,43.87279,37.54111,46.09984,33.2711,46.47179z M45.43052,37.55363c-0.36963-4.24072-2.80981-9.94897-6.44385-13.72723   c2.20239-0.79645,4.28247-0.0246,6.32935,2.35706c0.78198,1.78278,1.22266,3.74756,1.22266,5.81555   C46.53867,33.96599,46.1417,35.84087,45.43052,37.55363z"/><path d="M36.59312,6.98125c0.09009,0.27002,0.02002,0.57001-0.19019,0.77002l-1.65991,1.60999l0.40015,2.27997   c0.04004,0.29004-0.07007,0.57001-0.30005,0.74005c-0.23375,0.16161-0.53349,0.18978-0.79004,0.04999l-2.05005-1.07001   l-2.05005,1.07001c-0.25,0.14001-0.55981,0.12-0.78979-0.04999c-0.22998-0.17004-0.3501-0.45001-0.30005-0.74005l0.38989-2.27997   l-1.65991-1.60999c-0.19995-0.20001-0.27002-0.5-0.19019-0.77002c0.09009-0.27997,0.33008-0.46997,0.61011-0.51001l2.29004-0.33997   l1.03003-2.07001c0.25-0.52002,1.08984-0.52002,1.33984,0l1.03003,2.07001l2.29004,0.33997   C36.27305,6.51128,36.50303,6.70128,36.59312,6.98125z"/><path d="M48.84312,10.99126l-1.65991,1.62l0.38989,2.27997c0.05005,0.28003-0.07007,0.57001-0.30005,0.74005   c-0.24091,0.16687-0.54051,0.18595-0.79004,0.04999l-2.0498-1.07001l-2.05029,1.07001   c-0.25,0.14001-0.55981,0.10999-0.78979-0.04999c-0.22998-0.17004-0.34009-0.46002-0.30005-0.74005l0.3999-2.27997l-1.65991-1.62   c-0.20996-0.20001-0.28003-0.48999-0.18994-0.77002c0.09009-0.26996,0.32007-0.45996,0.59985-0.51001l2.29004-0.32996   l1.03003-2.08002c0.13013-0.25,0.38989-0.41003,0.67017-0.41003c0.28979,0,0.5498,0.16003,0.66992,0.41003l1.02979,2.08002   l2.29004,0.32996c0.28003,0.05005,0.52002,0.24005,0.61011,0.51001C49.11314,10.50127,49.04307,10.79124,48.84312,10.99126z"/><path d="M24.16319,10.22124c0.08984,0.28003,0.00977,0.57001-0.19019,0.77002l-1.65991,1.62l0.38989,2.27997   c0.05005,0.28003-0.05981,0.57001-0.30005,0.74005c-0.24634,0.17063-0.54652,0.18284-0.78979,0.04999l-2.05005-1.07001   l-2.05005,1.07001c-0.25,0.14001-0.55005,0.10999-0.79004-0.04999c-0.22998-0.17004-0.34009-0.46002-0.28979-0.74005   l0.38989-2.27997l-1.65991-1.62c-0.2002-0.20001-0.28027-0.48999-0.19019-0.77002c0.09009-0.26996,0.32007-0.45996,0.61011-0.51001   l2.29004-0.32996l1.02002-2.08002c0.25-0.51001,1.08984-0.51001,1.34985,0l1.02002,2.08002l2.29004,0.32996   C23.84312,9.76128,24.0731,9.95128,24.16319,10.22124z"/></g></svg>